# xmcd
#
# Track frame offsets:
#	150
#	11787
#	23700
#	36100
#	46742
#	58000
#	68922
#	80845
#	92885
#	105692
#	117607
#	127492
#	137802
#	149365
#	166477
#	180012
#	194430
#
# Disc length: 2736 seconds
#
# Revision: 1
# Processed by: cddbd v1.5.2PL0 Copyright (c) Steve Scherf et al.
# Submitted via: dBpowerAMP V4.0
#
DISCID=f90aae11
DTITLE=Carl Perkins - The Best of Carl Perkins
DYEAR=1998
DGENRE=Rock
TTITLE0=I Want You Back Again
TTITLE1=I Don't Want To Fall In Love
TTITLE2=Mama
TTITLE3=What am I Living For
TTITLE4=Sing a Song With Me
TTITLE5=Dixie Fried
TTITLE6=Matchbox
TTITLE7=Rise and Shine
TTITLE8=We Did It in '54
TTITLE9=Standing in the Need of Love
TTITLE10=This Ole House
TTITLE11=I Don't Like What I'm Seeing in You
TTITLE12=Born to Boogie
TTITLE13=Sweeter Than Candy
TTITLE14=Country Soul
TTITLE15=Redneck
TTITLE16=I Can Feel it
EXTD=The best of Carl Perkins
EXTT0=
EXTT1=
EXTT2=
EXTT3=
EXTT4=
EXTT5=
EXTT6=
EXTT7=
EXTT8=
EXTT9=
EXTT10=
EXTT11=
EXTT12=
EXTT13=
EXTT14=
EXTT15=
EXTT16=
PLAYORDER=
